<svg width="24" height="24" viewBox="0 0 24 24" fill="none" xmlns="http://www.w3.org/2000/svg">
<g clip-path="url(#clip0_643_7081)">
<path d="M0.975006 7C0.975006 5.33333 1.56267 3.91267 2.73801 2.738C3.91334 1.56333 5.33401 0.975332 7.00001 0.973999V3C5.90001 3 4.95834 3.39167 4.17501 4.175C3.39167 4.95833 3.00001 5.9 3.00001 7H0.975006ZM5.30001 18.725C3.78334 17.2083 3.02501 15.3833 3.02501 13.25C3.02501 11.1167 3.78334 9.29167 5.30001 7.775L7.05001 6L7.35001 6.3C7.83334 6.78333 8.07501 7.37067 8.07501 8.062C8.07501 8.75333 7.83334 9.34133 7.35001 9.826L7.00001 10.176C6.80001 10.376 6.70001 10.6137 6.70001 10.889C6.70001 11.1643 6.80001 11.4017 7.00001 11.601L7.90001 12.501C8.33334 12.9343 8.55001 13.4593 8.55001 14.076C8.55001 14.6927 8.33334 15.2173 7.90001 15.65L8.97501 16.725C9.70834 15.9917 10.075 15.1127 10.075 14.088C10.075 13.0633 9.70001 12.1757 8.95001 11.425L8.40001 10.875C8.83334 10.4417 9.14167 9.954 9.32501 9.412C9.50834 8.87 9.58334 8.316 9.55001 7.75L14.025 3.275C14.225 3.075 14.4627 2.975 14.738 2.975C15.0133 2.975 15.2507 3.075 15.45 3.275C15.6493 3.475 15.7493 3.71233 15.75 3.987C15.7507 4.26167 15.6507 4.49933 15.45 4.7L10.775 9.375L11.825 10.425L17.85 4.425C18.05 4.225 18.2833 4.125 18.55 4.125C18.8167 4.125 19.05 4.225 19.25 4.425C19.45 4.625 19.55 4.85833 19.55 5.125C19.55 5.39167 19.45 5.625 19.25 5.825L13.25 11.85L14.3 12.9L19.6 7.6C19.8 7.4 20.0377 7.3 20.313 7.3C20.5883 7.3 20.8257 7.4 21.025 7.6C21.2243 7.8 21.3243 8.03767 21.325 8.313C21.3257 8.58833 21.2257 8.82567 21.025 9.025L15.725 14.325L16.775 15.375L20.825 11.325C21.025 11.125 21.2627 11.025 21.538 11.025C21.8133 11.025 22.0507 11.125 22.25 11.325C22.4493 11.525 22.5493 11.7627 22.55 12.038C22.5507 12.3133 22.4507 12.5507 22.25 12.75L16.25 18.725C14.7333 20.2417 12.9083 21 10.775 21C8.64167 21 6.81667 20.2417 5.30001 18.725ZM17 23.025V21C18.1 21 19.0417 20.6083 19.825 19.825C20.6083 19.0417 21 18.1 21 17H23.025C23.025 18.6667 22.4373 20.0877 21.262 21.263C20.0867 22.4383 18.666 23.0257 17 23.025Z" fill="#0D47A1"/>
</g>
<defs>
<clipPath id="clip0_643_7081">
<rect width="24" height="24" fill="white"/>
</clipPath>
</defs>
</svg>
