<svg width="24" height="24" viewBox="0 0 24 24" fill="none" xmlns="http://www.w3.org/2000/svg">
<path d="M11.75 2C9.82164 2 7.93657 2.57183 6.33319 3.64317C4.72982 4.71451 3.48013 6.23726 2.74218 8.01884C2.00422 9.80042 1.81114 11.7608 2.18735 13.6521C2.56355 15.5434 3.49215 17.2807 4.85571 18.6443C6.21928 20.0079 7.95656 20.9365 9.84787 21.3127C11.7392 21.6889 13.6996 21.4958 15.4812 20.7578C17.2627 20.0199 18.7855 18.7702 19.8568 17.1668C20.9282 15.5634 21.5 13.6784 21.5 11.75C21.4973 9.16498 20.4692 6.68661 18.6413 4.85872C16.8134 3.03084 14.335 2.00273 11.75 2ZM11.75 17.75C11.5275 17.75 11.31 17.684 11.125 17.5604C10.94 17.4368 10.7958 17.2611 10.7106 17.0555C10.6255 16.85 10.6032 16.6238 10.6466 16.4055C10.69 16.1873 10.7972 15.9868 10.9545 15.8295C11.1118 15.6722 11.3123 15.565 11.5305 15.5216C11.7488 15.4782 11.975 15.5005 12.1805 15.5856C12.3861 15.6708 12.5618 15.815 12.6854 16C12.809 16.185 12.875 16.4025 12.875 16.625C12.875 16.9234 12.7565 17.2095 12.5455 17.4205C12.3345 17.6315 12.0484 17.75 11.75 17.75ZM12.5 13.1825V13.25C12.5 13.4489 12.421 13.6397 12.2803 13.7803C12.1397 13.921 11.9489 14 11.75 14C11.5511 14 11.3603 13.921 11.2197 13.7803C11.079 13.6397 11 13.4489 11 13.25V12.5C11 12.3011 11.079 12.1103 11.2197 11.9697C11.3603 11.829 11.5511 11.75 11.75 11.75C12.9903 11.75 14 10.9062 14 9.875C14 8.84375 12.9903 8 11.75 8C10.5097 8 9.5 8.84375 9.5 9.875V10.25C9.5 10.4489 9.42099 10.6397 9.28033 10.7803C9.13968 10.921 8.94892 11 8.75 11C8.55109 11 8.36033 10.921 8.21967 10.7803C8.07902 10.6397 8 10.4489 8 10.25V9.875C8 8.01406 9.68188 6.5 11.75 6.5C13.8181 6.5 15.5 8.01406 15.5 9.875C15.5 11.5044 14.21 12.8684 12.5 13.1825Z" fill="#1976D2"/>
</svg>
