<svg width="18" height="20" viewBox="0 0 18 20" fill="none" xmlns="http://www.w3.org/2000/svg">
<g clip-path="url(#clip0_69_1405)">
<path d="M17.5 14V1C17.5 0.375 17.125 0 16.5 0H3.75C1.625 0 0 1.625 0 3.75V16.25C0 18.375 1.625 20 3.75 20H16.5C17 20 17.5 19.625 17.5 19V18.375C17.5 18.125 17.375 17.875 17.125 17.625C17 17 17 15.25 17.125 14.75C17.375 14.625 17.5 14.375 17.5 14ZM5.625 6.5625C5.625 6.47962 5.65792 6.40013 5.71653 6.34153C5.77513 6.28292 5.85462 6.25 5.9375 6.25H8.125V4.0625C8.125 3.97962 8.15792 3.90013 8.21653 3.84153C8.27514 3.78292 8.35462 3.75 8.4375 3.75H10.3125C10.3954 3.75 10.4749 3.78292 10.5335 3.84153C10.5921 3.90013 10.625 3.97962 10.625 4.0625V6.25H12.8125C12.8954 6.25 12.9749 6.28292 13.0335 6.34153C13.0921 6.40013 13.125 6.47962 13.125 6.5625V8.4375C13.125 8.52038 13.0921 8.59987 13.0335 8.65847C12.9749 8.71708 12.8954 8.75 12.8125 8.75H10.625V10.9375C10.625 11.0204 10.5921 11.0999 10.5335 11.1585C10.4749 11.2171 10.3954 11.25 10.3125 11.25H8.4375C8.35462 11.25 8.27514 11.2171 8.21653 11.1585C8.15792 11.0999 8.125 11.0204 8.125 10.9375V8.75H5.9375C5.85462 8.75 5.77513 8.71708 5.71653 8.65847C5.65792 8.59987 5.625 8.52038 5.625 8.4375V6.5625ZM14.875 17.5H3.75C3 17.5 2.5 17 2.5 16.25C2.5 15.5 3.125 15 3.75 15H14.875V17.5Z" fill="#757575"/>
</g>
<defs>
<clipPath id="clip0_69_1405">
<rect width="17.5" height="20" fill="white"/>
</clipPath>
</defs>
</svg>
