<svg width="24" height="24" viewBox="0 0 24 24" fill="none" xmlns="http://www.w3.org/2000/svg">
<rect x="24" width="24" height="24" rx="12" transform="rotate(90 24 0)" fill="#757575"/>
<g opacity="0.8">
<path fill-rule="evenodd" clip-rule="evenodd" d="M13.9475 11.9991L9.44973 16.5347C9.11683 16.8709 9.11683 17.413 9.44973 17.7491C9.60836 17.9097 9.82473 18 10.0504 18C10.2761 18 10.4924 17.9097 10.6511 17.7491L15.7495 12.6072C16.0835 12.2714 16.0835 11.7286 15.7495 11.3928L10.6513 6.25089C10.4924 6.09032 10.2761 6 10.0504 6C9.82473 6 9.60836 6.09032 9.44952 6.25089C9.11683 6.58707 9.11683 7.1292 9.44995 7.46527L13.9475 11.9991Z" fill="url(#paint0_radial_85_1515)"/>
<path fill-rule="evenodd" clip-rule="evenodd" d="M13.9475 11.9991L9.44973 16.5347C9.11683 16.8709 9.11683 17.413 9.44973 17.7491C9.60836 17.9097 9.82473 18 10.0504 18C10.2761 18 10.4924 17.9097 10.6511 17.7491L15.7495 12.6072C16.0835 12.2714 16.0835 11.7286 15.7495 11.3928L10.6513 6.25089C10.4924 6.09032 10.2761 6 10.0504 6C9.82473 6 9.60836 6.09032 9.44952 6.25089C9.11683 6.58707 9.11683 7.1292 9.44995 7.46527L13.9475 11.9991Z" fill="white"/>
<path fill-rule="evenodd" clip-rule="evenodd" d="M13.9475 11.9991L9.44973 16.5347C9.11683 16.8709 9.11683 17.413 9.44973 17.7491C9.60836 17.9097 9.82473 18 10.0504 18C10.2761 18 10.4924 17.9097 10.6511 17.7491L15.7495 12.6072C16.0835 12.2714 16.0835 11.7286 15.7495 11.3928L10.6513 6.25089C10.4924 6.09032 10.2761 6 10.0504 6C9.82473 6 9.60836 6.09032 9.44952 6.25089C9.11683 6.58707 9.11683 7.1292 9.44995 7.46527L13.9475 11.9991Z" fill="white" fill-opacity="0.24" style="mix-blend-mode:overlay"/>
</g>
<defs>
<radialGradient id="paint0_radial_85_1515" cx="0" cy="0" r="1" gradientUnits="userSpaceOnUse" gradientTransform="translate(12.6 12) scale(3.4 6)">
<stop stop-color="#CC8B8B"/>
<stop offset="1" stop-color="#A33B3B"/>
</radialGradient>
</defs>
</svg>
