<svg width="32" height="32" viewBox="0 0 32 32" fill="none" xmlns="http://www.w3.org/2000/svg">
<path d="M26.9897 1.72141V5.98576C26.9897 7.02943 26.0927 7.87843 24.9899 7.87843C23.8871 7.87843 22.9901 7.02943 22.9901 5.98576V1.71495H9.12774V5.98576C9.12774 7.02943 8.23067 7.87843 7.1279 7.87843C6.02513 7.87843 5.12806 7.02943 5.12806 5.98576V1.71899C2.28321 1.79411 0 3.99939 0 6.71035V27.0054C0 29.764 2.36259 32 5.27743 32H26.7226C29.6374 32 32 29.764 32 27.0054V6.71035C32.0009 4.03655 29.7808 1.85308 26.9897 1.72141ZM29.1953 26.4876C29.1953 28.2147 27.7161 29.6154 25.8904 29.6154H6.20608C4.38121 29.6154 2.90118 28.2155 2.90118 26.4876V10.175H29.1953V26.4876ZM5.89709 5.98657V1.16565C5.89709 0.521836 6.44848 0 7.12875 0C7.80902 0 8.36041 0.521836 8.36041 1.16565V5.98657C8.36041 6.63038 7.80902 7.15222 7.12875 7.15222C6.44848 7.15141 5.89709 6.63038 5.89709 5.98657ZM23.7591 5.98657V1.16565C23.7591 0.521836 24.3105 0 24.9907 0C25.671 0 26.2224 0.521836 26.2224 1.16565V5.98657C26.2224 6.63038 25.671 7.15222 24.9907 7.15222C24.3105 7.15141 23.7591 6.63038 23.7591 5.98657ZM4.22928 23.2564V22.2354C4.22928 21.8573 4.55277 21.5512 4.95223 21.5512H6.0311C6.15145 21.5512 6.26497 21.5794 6.36569 21.6287C6.45104 21.9163 6.58334 22.1853 6.75405 22.4276V23.2556C6.75405 23.6337 6.43056 23.9398 6.0311 23.9398H4.95223C4.55277 23.9398 4.22928 23.6337 4.22928 23.2564ZM4.22928 27.0725V26.0514C4.22928 25.6733 4.55277 25.3672 4.95223 25.3672H6.0311C6.43056 25.3672 6.75405 25.6733 6.75405 26.0514V27.0725C6.75405 27.4505 6.43056 27.7567 6.0311 27.7567H4.95223C4.55277 27.7558 4.22928 27.4497 4.22928 27.0725ZM7.63234 15.6236V14.6025C7.63234 14.2245 7.95583 13.9183 8.35528 13.9183H9.43416C9.83361 13.9183 10.1571 14.2245 10.1571 14.6025V15.6236C10.1571 15.7956 10.0897 15.9523 9.97871 16.0727H9.23614C8.84607 16.0727 8.47478 16.1446 8.13251 16.2738C7.84145 16.185 7.63234 15.9281 7.63234 15.6236ZM4.22928 15.6236V14.6025C4.22928 14.2245 4.55277 13.9183 4.95223 13.9183H6.0311C6.43056 13.9183 6.75405 14.2245 6.75405 14.6025V15.6236C6.75405 16.0016 6.43056 16.3078 6.0311 16.3078H4.95223C4.55277 16.3078 4.22928 16.0016 4.22928 15.6236ZM21.9795 16.0727C21.8685 15.9523 21.8011 15.7956 21.8011 15.6236V14.6025C21.8011 14.2245 22.1246 13.9183 22.524 13.9183H23.6029C24.0023 13.9183 24.3258 14.2245 24.3258 14.6025V15.6236C24.3258 15.9023 24.1492 16.1414 23.8965 16.248C23.5739 16.1349 23.2256 16.0727 22.862 16.0727H21.9795ZM4.22928 19.4396V18.4185C4.22928 18.0405 4.55277 17.7343 4.95223 17.7343H6.0311C6.19157 17.7343 6.33837 17.7844 6.45872 17.8676C6.32642 18.1859 6.25387 18.5324 6.25387 18.8943V20.0899C6.18388 20.1117 6.10963 20.123 6.03195 20.123H4.95223C4.55277 20.1238 4.22928 19.8176 4.22928 19.4396ZM27.8672 18.4193V19.4404C27.8672 19.8184 27.5437 20.1246 27.1442 20.1246H26.0653C25.9877 20.1246 25.9134 20.1125 25.8434 20.0915V18.8959C25.8434 18.5341 25.77 18.1875 25.6386 17.8692C25.7581 17.786 25.9057 17.736 26.0662 17.736H27.1451C27.5437 17.7351 27.8672 18.0413 27.8672 18.4193ZM25.3433 15.6236V14.6025C25.3433 14.2245 25.6667 13.9183 26.0662 13.9183H27.1451C27.5445 13.9183 27.868 14.2245 27.868 14.6025V15.6236C27.868 16.0016 27.5445 16.3078 27.1451 16.3078H26.0662C25.6667 16.3078 25.3433 16.0016 25.3433 15.6236ZM25.3433 23.2564V22.4284C25.514 22.1861 25.6463 21.9171 25.7316 21.6295C25.8315 21.5802 25.945 21.552 26.0662 21.552H27.1451C27.5445 21.552 27.868 21.8581 27.868 22.2362V23.2572C27.868 23.6353 27.5445 23.9414 27.1451 23.9414H26.0662C25.6667 23.9398 25.3433 23.6337 25.3433 23.2564ZM10.1562 26.0514V27.0725C10.1562 27.4505 9.83276 27.7567 9.4333 27.7567H8.35443C7.95498 27.7567 7.63148 27.4505 7.63148 27.0725V26.0514C7.63148 25.6733 7.95498 25.3672 8.35443 25.3672H9.4333C9.83191 25.3672 10.1562 25.6733 10.1562 26.0514ZM24.325 26.0514V27.0725C24.325 27.4505 24.0015 27.7567 23.602 27.7567H22.5232C22.1237 27.7567 21.8002 27.4505 21.8002 27.0725V26.0514C21.8002 25.6733 22.1237 25.3672 22.5232 25.3672H23.602C24.0015 25.3672 24.325 25.6733 24.325 26.0514ZM25.3433 27.0725V26.0514C25.3433 25.6733 25.6667 25.3672 26.0662 25.3672H27.1451C27.5445 25.3672 27.868 25.6733 27.868 26.0514V27.0725C27.868 27.4505 27.5445 27.7567 27.1451 27.7567H26.0662C25.6667 27.7558 25.3433 27.4497 25.3433 27.0725ZM7.10656 20.8654V18.8951C7.10656 17.7828 8.05911 16.8805 9.23528 16.8805H12.879V13.432C12.879 12.3197 13.8316 11.4174 15.0078 11.4174H17.0895C18.2649 11.4174 19.2183 12.3189 19.2183 13.432V16.8805H22.862C24.0373 16.8805 24.9907 17.782 24.9907 18.8951V20.8654C24.9907 21.9777 24.0382 22.88 22.862 22.88H19.2183V26.3285C19.2183 27.4408 18.2657 28.3431 17.0895 28.3431H15.0078C13.8324 28.3431 12.879 27.4416 12.879 26.3285V22.88H9.23528C8.05911 22.88 7.10656 21.9777 7.10656 20.8654Z" fill="white"/>
</svg>
