<svg width="24" height="24" viewBox="0 0 24 24" fill="none" xmlns="http://www.w3.org/2000/svg">
<g clip-path="url(#clip0_643_4856)">
<path d="M11.9998 0C10.0613 0 8.90101 0.295385 8.16347 0.663692C7.79424 0.848308 7.53208 1.04215 7.35577 1.24062C7.23472 1.38809 7.13725 1.55344 7.06685 1.73077C7.03791 1.8049 7.01867 1.88247 7.00962 1.96154L6.51854 8.27908C6.51208 8.31785 6.52501 8.38062 6.51854 8.42308L6.46131 9.05815C6.45594 9.11557 6.45594 9.17336 6.46131 9.23077C6.46131 12.2769 8.95362 14.7692 11.9998 14.7692C15.0459 14.7692 17.5382 12.2769 17.5382 9.23077V9.08677C17.5384 9.07723 17.5384 9.06769 17.5382 9.05815L16.9899 1.96154C16.9809 1.88247 16.9616 1.8049 16.9327 1.73077C16.9327 1.73077 16.821 1.43908 16.6438 1.24062C16.4675 1.04123 16.2053 0.847385 15.8361 0.663692C15.0985 0.294462 13.9382 0 11.9998 0ZM11.9998 14.7692C5.90747 14.7692 0.922852 17.6363 0.922852 20.2209V24H23.0767V20.2209C23.0767 17.7655 18.5702 15.0609 12.8942 14.7978C12.5965 14.7782 12.2982 14.7687 11.9998 14.7692ZM11.9998 1.84615C13.7536 1.84615 14.6296 2.12308 14.9998 2.30769C15.1235 2.36954 15.1382 2.39354 15.1733 2.42308L15.5481 7.15385C14.6989 7.20554 13.5413 7.38462 11.9998 7.38462C10.4582 7.38462 9.30162 7.20554 8.45147 7.15385L8.82624 2.42308C8.86039 2.39354 8.87608 2.36954 8.99977 2.30769C9.36993 2.12308 10.2459 1.84615 11.9998 1.84615ZM11.2493 2.76923V3.86585H10.1536V5.36585H11.2502V6.46154H12.7493V5.36492H13.8459V3.86585H12.7493V2.76923H11.2493ZM9.23054 16.8462L11.5964 22.1538H2.76901V20.2209C2.76901 19.5332 5.12285 17.5191 9.23054 16.8462ZM14.769 16.8462C18.8767 17.52 21.2305 19.5332 21.2305 20.2209V22.1538H12.4032L14.769 16.8462Z" fill="#1976D2"/>
</g>
<defs>
<clipPath id="clip0_643_4856">
<rect width="24" height="24" fill="white"/>
</clipPath>
</defs>
</svg>
