<svg width="24" height="24" viewBox="0 0 24 24" fill="none" xmlns="http://www.w3.org/2000/svg">
<path d="M20 15.6V3.9C20 3.3375 19.6571 3 19.0857 3H7.42857C5.48571 3 4 4.4625 4 6.375V17.625C4 19.5375 5.48571 21 7.42857 21H19.0857C19.5429 21 20 20.6625 20 20.1V19.5375C20 19.3125 19.8857 19.0875 19.6571 18.8625C19.5429 18.3 19.5429 16.725 19.6571 16.275C19.8857 16.1625 20 15.9375 20 15.6ZM9.14286 8.90625C9.14286 8.83166 9.17296 8.76012 9.22654 8.70738C9.28012 8.65463 9.3528 8.625 9.42857 8.625H11.4286V6.65625C11.4286 6.58166 11.4587 6.51012 11.5123 6.45738C11.5658 6.40463 11.6385 6.375 11.7143 6.375H13.4286C13.5043 6.375 13.577 6.40463 13.6306 6.45738C13.6842 6.51012 13.7143 6.58166 13.7143 6.65625V8.625H15.7143C15.7901 8.625 15.8627 8.65463 15.9163 8.70738C15.9699 8.76012 16 8.83166 16 8.90625V10.5938C16 10.6683 15.9699 10.7399 15.9163 10.7926C15.8627 10.8454 15.7901 10.875 15.7143 10.875H13.7143V12.8438C13.7143 12.9183 13.6842 12.9899 13.6306 13.0426C13.577 13.0954 13.5043 13.125 13.4286 13.125H11.7143C11.6385 13.125 11.5658 13.0954 11.5123 13.0426C11.4587 12.9899 11.4286 12.9183 11.4286 12.8438V10.875H9.42857C9.3528 10.875 9.28012 10.8454 9.22654 10.7926C9.17296 10.7399 9.14286 10.6683 9.14286 10.5938V8.90625ZM17.6 18.75H7.42857C6.74286 18.75 6.28571 18.3 6.28571 17.625C6.28571 16.95 6.85714 16.5 7.42857 16.5H17.6V18.75Z" fill="#1976D2"/>
</svg>
