<svg width="147" height="36" viewBox="0 0 147 36" fill="none" xmlns="http://www.w3.org/2000/svg">
<path d="M28.1581 1.89763V6.59852C28.1581 7.74903 27.2222 8.68493 26.0717 8.68493C24.9212 8.68493 23.9853 7.74903 23.9853 6.59852V1.89051H9.52288V6.59852C9.52288 7.74903 8.58698 8.68493 7.43647 8.68493C6.28596 8.68493 5.35005 7.74903 5.35005 6.59852V1.89496C2.38206 1.97777 0 4.40881 0 7.39729V29.7699C0 32.8109 2.46487 35.2758 5.50589 35.2758H27.8794C30.9204 35.2758 33.3853 32.8109 33.3853 29.7699V7.39729C33.3862 4.44977 31.07 2.04278 28.1581 1.89763ZM30.4592 29.1991C30.4592 31.103 28.9159 32.6471 27.0112 32.6471H6.47474C4.57088 32.6471 3.02677 31.1039 3.02677 29.1991V11.2166H30.4592V29.1991ZM6.15238 6.59941V1.28497C6.15238 0.575255 6.72764 0 7.43736 0C8.14708 0 8.72233 0.575255 8.72233 1.28497V6.59941C8.72233 7.30913 8.14708 7.88438 7.43736 7.88438C6.72764 7.88349 6.15238 7.30913 6.15238 6.59941ZM24.7876 6.59941V1.28497C24.7876 0.575255 25.3629 0 26.0726 0C26.7823 0 27.3576 0.575255 27.3576 1.28497V6.59941C27.3576 7.30913 26.7823 7.88438 26.0726 7.88438C25.3629 7.88349 24.7876 7.30913 24.7876 6.59941ZM4.41237 25.6372V24.5116C4.41237 24.0948 4.74986 23.7573 5.16661 23.7573H6.29219C6.41775 23.7573 6.53618 23.7885 6.64126 23.8428C6.73031 24.1598 6.86834 24.4564 7.04643 24.7235V25.6363C7.04643 26.053 6.70894 26.3905 6.29219 26.3905H5.16661C4.74986 26.3905 4.41237 26.053 4.41237 25.6372ZM4.41237 29.8438V28.7182C4.41237 28.3015 4.74986 27.964 5.16661 27.964H6.29219C6.70894 27.964 7.04643 28.3015 7.04643 28.7182V29.8438C7.04643 30.2606 6.70894 30.5981 6.29219 30.5981H5.16661C4.74986 30.5972 4.41237 30.2597 4.41237 29.8438ZM7.96275 17.2229V16.0974C7.96275 15.6806 8.30024 15.3431 8.71699 15.3431H9.84256C10.2593 15.3431 10.5968 15.6806 10.5968 16.0974V17.2229C10.5968 17.4126 10.5265 17.5854 10.4107 17.718H9.63597C9.22902 17.718 8.84166 17.7973 8.48457 17.9398C8.18091 17.8418 7.96275 17.5586 7.96275 17.2229ZM4.41237 17.2229V16.0974C4.41237 15.6806 4.74986 15.3431 5.16661 15.3431H6.29219C6.70894 15.3431 7.04643 15.6806 7.04643 16.0974V17.2229C7.04643 17.6397 6.70894 17.9772 6.29219 17.9772H5.16661C4.74986 17.9772 4.41237 17.6397 4.41237 17.2229ZM22.931 17.718C22.8152 17.5854 22.7449 17.4126 22.7449 17.2229V16.0974C22.7449 15.6806 23.0823 15.3431 23.4991 15.3431H24.6247C25.0414 15.3431 25.3789 15.6806 25.3789 16.0974V17.2229C25.3789 17.5302 25.1946 17.7937 24.931 17.9113C24.5944 17.7866 24.2311 17.718 23.8517 17.718H22.931ZM4.41237 21.4296V20.304C4.41237 19.8873 4.74986 19.5498 5.16661 19.5498H6.29219C6.4596 19.5498 6.61276 19.605 6.73832 19.6967C6.6003 20.0476 6.52461 20.4296 6.52461 20.8285V22.1464C6.45159 22.1705 6.37411 22.183 6.29308 22.183H5.16661C4.74986 22.1838 4.41237 21.8463 4.41237 21.4296ZM29.0735 20.3049V21.4305C29.0735 21.8472 28.7361 22.1847 28.3193 22.1847H27.1937C27.1127 22.1847 27.0352 22.1714 26.9622 22.1482V20.8303C26.9622 20.4314 26.8856 20.0493 26.7485 19.6985C26.8732 19.6068 27.0272 19.5516 27.1946 19.5516H28.3202C28.7361 19.5507 29.0735 19.8882 29.0735 20.3049ZM26.4404 17.2229V16.0974C26.4404 15.6806 26.7779 15.3431 27.1946 15.3431H28.3202C28.7369 15.3431 29.0744 15.6806 29.0744 16.0974V17.2229C29.0744 17.6397 28.7369 17.9772 28.3202 17.9772H27.1946C26.7779 17.9772 26.4404 17.6397 26.4404 17.2229ZM26.4404 25.6372V24.7244C26.6185 24.4573 26.7565 24.1607 26.8455 23.8437C26.9497 23.7894 27.0682 23.7582 27.1946 23.7582H28.3202C28.7369 23.7582 29.0744 24.0957 29.0744 24.5125V25.638C29.0744 26.0548 28.7369 26.3923 28.3202 26.3923H27.1946C26.7779 26.3905 26.4404 26.053 26.4404 25.6372ZM10.5959 28.7182V29.8438C10.5959 30.2606 10.2584 30.5981 9.84167 30.5981H8.7161C8.29935 30.5981 7.96185 30.2606 7.96185 29.8438V28.7182C7.96185 28.3015 8.29935 27.964 8.7161 27.964H9.84167C10.2575 27.964 10.5959 28.3015 10.5959 28.7182ZM25.378 28.7182V29.8438C25.378 30.2606 25.0405 30.5981 24.6238 30.5981H23.4982C23.0815 30.5981 22.744 30.2606 22.744 29.8438V28.7182C22.744 28.3015 23.0815 27.964 23.4982 27.964H24.6238C25.0405 27.964 25.378 28.3015 25.378 28.7182ZM26.4404 29.8438V28.7182C26.4404 28.3015 26.7779 27.964 27.1946 27.964H28.3202C28.7369 27.964 29.0744 28.3015 29.0744 28.7182V29.8438C29.0744 30.2606 28.7369 30.5981 28.3202 30.5981H27.1946C26.7779 30.5972 26.4404 30.2597 26.4404 29.8438ZM7.4142 23.0013V20.8294C7.4142 19.6032 8.40799 18.6085 9.63508 18.6085H13.4366V14.807C13.4366 13.5808 14.4304 12.5862 15.6575 12.5862H17.8294C19.0556 12.5862 20.0502 13.5799 20.0502 14.807V18.6085H23.8517C25.0779 18.6085 26.0726 19.6023 26.0726 20.8294V23.0013C26.0726 24.2275 25.0788 25.2222 23.8517 25.2222H20.0502V29.0237C20.0502 30.2499 19.0564 31.2446 17.8294 31.2446H15.6575C14.4313 31.2446 13.4366 30.2508 13.4366 29.0237V25.2222H9.63508C8.40799 25.2222 7.4142 24.2275 7.4142 23.0013Z" fill="white"/>
<path d="M51.0883 13.5772V23.7582H49.0464V17.1365L46.3189 23.7582H44.773L42.0311 17.1365V23.7582H39.9893V13.5772H42.3081L45.5459 21.1473L48.7837 13.5772H51.0883Z" fill="white"/>
<path d="M60.831 15.677L55.8283 27.5784H53.6555L55.4053 23.5525L52.1675 15.6761H54.4578L56.5433 21.3209L58.6583 15.6761H60.831V15.677Z" fill="white"/>
<path d="M71.7773 14.2042C72.5894 14.6227 73.2163 15.2175 73.6589 15.9905C74.1015 16.7634 74.3223 17.6601 74.3223 18.6815C74.3223 19.702 74.1015 20.5943 73.6589 21.3583C73.2163 22.1215 72.5894 22.7128 71.7773 23.1304C70.9652 23.5489 70.0248 23.7573 68.9554 23.7573H65.397V13.5772H68.9554C70.0248 13.5772 70.9661 13.7865 71.7773 14.2042ZM71.3624 21.1464C71.9456 20.5631 72.2377 19.7412 72.2377 18.6815C72.2377 17.6218 71.9456 16.7928 71.3624 16.1944C70.7791 15.596 69.9527 15.2977 68.8832 15.2977H67.4389V22.0217H68.8832C69.9518 22.0217 70.7791 21.7306 71.3624 21.1464Z" fill="white"/>
<path d="M77.3415 23.3709C76.7191 23.0262 76.2302 22.5374 75.8758 21.9051C75.5205 21.2729 75.3433 20.5436 75.3433 19.7172C75.3433 18.8908 75.5258 18.1615 75.89 17.5293C76.2542 16.897 76.7529 16.409 77.3852 16.0635C78.0174 15.718 78.7218 15.5461 79.5001 15.5461C80.2775 15.5461 80.9827 15.7189 81.615 16.0635C82.2472 16.409 82.745 16.897 83.1101 17.5293C83.4743 18.1615 83.6569 18.8908 83.6569 19.7172C83.6569 20.5436 83.4699 21.2729 83.095 21.9051C82.721 22.5374 82.2152 23.0262 81.5785 23.3709C80.9418 23.7164 80.2294 23.8891 79.4413 23.8891C78.6639 23.8891 77.964 23.7164 77.3415 23.3709ZM80.4849 21.8392C80.8109 21.6593 81.0709 21.3895 81.265 21.0298C81.4591 20.67 81.5571 20.2328 81.5571 19.7172C81.5571 18.9496 81.3549 18.3583 80.9516 17.9451C80.5482 17.5319 80.0548 17.3253 79.4716 17.3253C78.8883 17.3253 78.3994 17.5319 78.0058 17.9451C77.6122 18.3583 77.4154 18.9496 77.4154 19.7172C77.4154 20.4857 77.6078 21.0761 77.9916 21.4893C78.3754 21.9024 78.8598 22.109 79.4431 22.109C79.8117 22.109 80.159 22.02 80.4849 21.8392Z" fill="white"/>
<path d="M85.145 17.5221C85.4852 16.8952 85.9571 16.409 86.56 16.0635C87.1629 15.718 87.853 15.5461 88.6313 15.5461C89.6331 15.5461 90.4621 15.7964 91.1184 16.2977C91.7747 16.7982 92.2146 17.5008 92.4381 18.4055H90.2359C90.1193 18.0555 89.9225 17.7804 89.6455 17.5818C89.3686 17.3823 89.0258 17.2826 88.617 17.2826C88.0338 17.2826 87.5716 17.4945 87.2314 17.9166C86.8913 18.3396 86.7212 18.9398 86.7212 19.7181C86.7212 20.4866 86.8913 21.0814 87.2314 21.5044C87.5716 21.9274 88.0338 22.1384 88.617 22.1384C89.4434 22.1384 89.983 21.7689 90.2359 21.0298H92.4381C92.2146 21.9051 91.772 22.6006 91.1104 23.1153C90.4488 23.6309 89.6224 23.8882 88.6313 23.8882C87.853 23.8882 87.1629 23.7155 86.56 23.37C85.9571 23.0253 85.4852 22.5382 85.145 21.9113C84.8049 21.2844 84.6348 20.5525 84.6348 19.7163C84.6339 18.881 84.804 18.149 85.145 17.5221Z" fill="white"/>
<path d="M96.3171 17.3547V21.2639C96.3171 21.5364 96.383 21.7332 96.5139 21.8543C96.6448 21.9763 96.8665 22.0369 97.1773 22.0369H98.1257V23.7582H96.8425C95.1212 23.7582 94.261 22.922 94.261 21.2497V17.3556H93.2983V15.6779H94.261V13.6796H96.3171V15.6779H98.1257V17.3556H96.3171V17.3547Z" fill="white"/>
<path d="M101.087 23.3709C100.464 23.0262 99.9753 22.5374 99.6209 21.9051C99.2656 21.2729 99.0884 20.5436 99.0884 19.7172C99.0884 18.8908 99.2709 18.1615 99.6351 17.5293C99.9993 16.897 100.498 16.409 101.13 16.0635C101.763 15.718 102.467 15.5461 103.245 15.5461C104.023 15.5461 104.728 15.7189 105.36 16.0635C105.992 16.409 106.49 16.897 106.855 17.5293C107.219 18.1615 107.402 18.8908 107.402 19.7172C107.402 20.5436 107.215 21.2729 106.84 21.9051C106.465 22.5374 105.96 23.0262 105.324 23.3709C104.687 23.7164 103.974 23.8891 103.186 23.8891C102.409 23.8891 101.708 23.7164 101.087 23.3709ZM104.229 21.8392C104.555 21.6593 104.815 21.3895 105.009 21.0298C105.203 20.67 105.301 20.2328 105.301 19.7172C105.301 18.9496 105.099 18.3583 104.696 17.9451C104.292 17.5319 103.799 17.3253 103.216 17.3253C102.633 17.3253 102.144 17.5319 101.75 17.9451C101.356 18.3583 101.16 18.9496 101.16 19.7172C101.16 20.4857 101.352 21.0761 101.736 21.4893C102.12 21.9024 102.604 22.109 103.187 22.109C103.556 22.109 103.903 22.02 104.229 21.8392Z" fill="white"/>
<path d="M111.974 15.9255C112.397 15.6824 112.88 15.5612 113.425 15.5612V17.7055H112.886C112.244 17.7055 111.76 17.856 111.434 18.1579C111.108 18.4598 110.945 18.9843 110.945 19.7332V23.7591H108.903V15.6788H110.945V16.9335C111.209 16.5034 111.551 16.1686 111.974 15.9255Z" fill="white"/>
<path d="M124.51 21.8178H120.455L119.785 23.7573H117.641L121.301 13.5621H123.679L127.34 23.7573H125.181L124.51 21.8178ZM123.956 20.1838L122.483 15.9246L121.01 20.1838H123.956Z" fill="white"/>
<path d="M131.839 15.9175C132.301 15.6699 132.828 15.5452 133.421 15.5452C134.111 15.5452 134.736 15.7153 135.296 16.0555C135.855 16.3957 136.297 16.8792 136.622 17.507C136.948 18.1339 137.111 18.8614 137.111 19.6878C137.111 20.5142 136.948 21.2461 136.622 21.8828C136.296 22.5195 135.854 23.0129 135.296 23.3628C134.736 23.7128 134.111 23.8882 133.421 23.8882C132.828 23.8882 132.305 23.7662 131.853 23.5231C131.401 23.28 131.034 22.9737 130.751 22.6041V27.6069H128.709V15.677H130.751V16.8436C131.015 16.4749 131.377 16.1659 131.839 15.9175ZM134.726 18.4269C134.527 18.0724 134.264 17.8017 133.939 17.6174C133.613 17.4331 133.261 17.3405 132.881 17.3405C132.512 17.3405 132.165 17.4349 131.839 17.6245C131.513 17.8142 131.25 18.0894 131.051 18.4482C130.852 18.808 130.752 19.231 130.752 19.7172C130.752 20.2034 130.852 20.6264 131.051 20.9861C131.251 21.3459 131.514 21.6202 131.839 21.8098C132.165 21.9995 132.512 22.0939 132.881 22.0939C133.261 22.0939 133.613 21.9968 133.939 21.8018C134.265 21.6077 134.528 21.3307 134.726 20.9701C134.926 20.6103 135.026 20.1829 135.026 19.6869C135.026 19.2025 134.926 18.7813 134.726 18.4269Z" fill="white"/>
<path d="M141.727 15.9175C142.189 15.6699 142.717 15.5452 143.31 15.5452C144 15.5452 144.625 15.7153 145.184 16.0555C145.743 16.3957 146.186 16.8792 146.511 17.507C146.837 18.1339 147 18.8614 147 19.6878C147 20.5142 146.837 21.2461 146.511 21.8828C146.185 22.5195 145.743 23.0129 145.184 23.3628C144.625 23.7128 144 23.8882 143.31 23.8882C142.717 23.8882 142.194 23.7662 141.742 23.5231C141.289 23.28 140.922 22.9737 140.64 22.6041V27.6069H138.598V15.677H140.64V16.8436C140.904 16.4749 141.266 16.1659 141.727 15.9175ZM144.615 18.4269C144.416 18.0724 144.153 17.8017 143.828 17.6174C143.502 17.4331 143.149 17.3405 142.77 17.3405C142.401 17.3405 142.053 17.4349 141.727 17.6245C141.401 17.8142 141.139 18.0894 140.94 18.4482C140.741 18.808 140.641 19.231 140.641 19.7172C140.641 20.2034 140.741 20.6264 140.94 20.9861C141.14 21.3459 141.402 21.6202 141.727 21.8098C142.053 21.9995 142.401 22.0939 142.77 22.0939C143.149 22.0939 143.502 21.9968 143.828 21.8018C144.154 21.6077 144.417 21.3307 144.615 20.9701C144.815 20.6103 144.914 20.1829 144.914 19.6869C144.914 19.2025 144.815 18.7813 144.615 18.4269Z" fill="white"/>
</svg>
